<svg width="32" height="32" viewBox="0 0 32 32" fill="none" xmlns="http://www.w3.org/2000/svg">
<path d="M5.33337 9C5.33337 8.44772 5.78109 8 6.33337 8H25.6667C26.219 8 26.6667 8.44772 26.6667 9V9.66667C26.6667 10.219 26.219 10.6667 25.6667 10.6667H6.33338C5.78109 10.6667 5.33337 10.219 5.33337 9.66667V9ZM10.6667 15.6667C10.6667 15.1144 11.1144 14.6667 11.6667 14.6667H25.6667C26.219 14.6667 26.6667 15.1144 26.6667 15.6667V16.3333C26.6667 16.8856 26.219 17.3333 25.6667 17.3333H11.6667C11.1144 17.3333 10.6667 16.8856 10.6667 16.3333V15.6667ZM17.3334 22.3333C17.3334 21.781 17.7811 21.3333 18.3334 21.3333H25.6667C26.219 21.3333 26.6667 21.781 26.6667 22.3333V23C26.6667 23.5523 26.219 24 25.6667 24H18.3334C17.7811 24 17.3334 23.5523 17.3334 23V22.3333Z" fill="white"/>
</svg>
