<svg width="24" height="24" viewBox="0 0 24 24" fill="none" xmlns="http://www.w3.org/2000/svg">
<path d="M12.8572 10.0714C12.8572 9.90093 12.9249 9.73742 13.0455 9.61686C13.1661 9.4963 13.3296 9.42857 13.5001 9.42857H18.2143C18.3848 9.42857 18.5484 9.4963 18.6689 9.61686C18.7895 9.73742 18.8572 9.90093 18.8572 10.0714C18.8572 10.2419 18.7895 10.4054 18.6689 10.526C18.5484 10.6466 18.3848 10.7143 18.2143 10.7143H13.5001C13.3296 10.7143 13.1661 10.6466 13.0455 10.526C12.9249 10.4054 12.8572 10.2419 12.8572 10.0714V10.0714ZM13.5001 12.8571C13.3296 12.8571 13.1661 12.9249 13.0455 13.0454C12.9249 13.166 12.8572 13.3295 12.8572 13.5C12.8572 13.6705 12.9249 13.834 13.0455 13.9546C13.1661 14.0751 13.3296 14.1429 13.5001 14.1429H18.2143C18.3848 14.1429 18.5484 14.0751 18.6689 13.9546C18.7895 13.834 18.8572 13.6705 18.8572 13.5C18.8572 13.3295 18.7895 13.166 18.6689 13.0454C18.5484 12.9249 18.3848 12.8571 18.2143 12.8571H13.5001ZM9.64292 10.0714C9.64292 10.4693 9.48488 10.8508 9.20358 11.1321C8.92227 11.4134 8.54074 11.5714 8.14292 11.5714C7.74509 11.5714 7.36356 11.4134 7.08226 11.1321C6.80095 10.8508 6.64292 10.4693 6.64292 10.0714C6.64292 9.67361 6.80095 9.29207 7.08226 9.01077C7.36356 8.72947 7.74509 8.57143 8.14292 8.57143C8.54074 8.57143 8.92227 8.72947 9.20358 9.01077C9.48488 9.29207 9.64292 9.67361 9.64292 10.0714V10.0714ZM6.00006 12.4286H10.2858C10.5131 12.4286 10.7311 12.5189 10.8919 12.6796C11.0526 12.8404 11.1429 13.0584 11.1429 13.2857V13.7143C11.1429 13.7143 10.7143 15.8571 8.14292 15.8571C5.57149 15.8571 5.14292 13.7143 5.14292 13.7143V13.2857C5.14292 13.0584 5.23322 12.8404 5.39397 12.6796C5.55471 12.5189 5.77273 12.4286 6.00006 12.4286ZM1.71777 5.78572C1.71777 5.16056 1.96611 4.56101 2.40816 4.11896C2.85021 3.67691 3.44976 3.42857 4.07492 3.42857H19.9286C20.5538 3.42857 21.1533 3.67691 21.5954 4.11896C22.0374 4.56101 22.2858 5.16056 22.2858 5.78572V18.2143C22.2858 18.8394 22.0374 19.439 21.5954 19.881C21.1533 20.3231 20.5538 20.5714 19.9286 20.5714H4.07577C3.45062 20.5714 2.85107 20.3231 2.40902 19.881C1.96697 19.439 1.71863 18.8394 1.71863 18.2143V5.78572H1.71777ZM4.07492 4.71429C3.48349 4.71429 3.00349 5.19429 3.00349 5.78572V18.2143C3.00349 18.8057 3.48349 19.2857 4.07492 19.2857H19.9286C20.5201 19.2857 21.0001 18.8057 21.0001 18.2143V5.78572C21.0001 5.19429 20.5201 4.71429 19.9286 4.71429H4.07577H4.07492Z" fill="white"/>
</svg>
